<svg xmlns="http://www.w3.org/2000/svg" xmlns:xlink="http://www.w3.org/1999/xlink" width="400" height="170.47" viewBox="0 0 400 170.47"><defs><style>.a,.b,.f{fill:#9cbad4;}.a,.d,.e,.h,.k,.n{stroke:rgba(0,0,0,0);stroke-miterlimit:10;}.a,.b,.c,.d{opacity:0.44;}.c,.g,.j,.m{fill:#fff;}.d,.h,.k,.n{fill:none;}.e{fill:#98b7d3;opacity:0.37;}.f,.g,.h{opacity:0.66;}.i,.j,.k{opacity:0.74;}.i{fill:url(#i);}.l{fill:#b6d1e8;}.o{filter:url(#m);}.p{filter:url(#j);}.q{filter:url(#f);}.r{filter:url(#c);}.s{filter:url(#a);}</style><filter id="a" x="0" y="14.561" width="358.916" height="155.909" filterUnits="userSpaceOnUse"><feOffset dy="3" input="SourceAlpha"/><feGaussianBlur stdDeviation="3" result="b"/><feFlood flood-opacity="0.161"/><feComposite operator="in" in2="b"/></filter><filter id="c" x="0" y="14.561" width="358.916" height="155.909" filterUnits="userSpaceOnUse"><feOffset input="SourceAlpha"/><feGaussianBlur stdDeviation="10" result="d"/><feFlood flood-opacity="0.161" result="e"/><feComposite operator="out" in="SourceGraphic" in2="d"/><feComposite operator="in" in="e"/><feComposite operator="in" in2="SourceGraphic"/></filter><filter id="f"><feOffset dy="3" input="SourceAlpha"/><feGaussianBlur stdDeviation="10" result="g"/><feFlood flood-opacity="0.161" result="h"/><feComposite operator="out" in="SourceGraphic" in2="g"/><feComposite operator="in" in="h"/><feComposite operator="in" in2="SourceGraphic"/></filter><linearGradient id="i" x1="0.5" x2="0.5" y2="1" gradientUnits="objectBoundingBox"><stop offset="0" stop-color="#6696be"/><stop offset="1" stop-color="#fff"/></linearGradient><filter id="j"><feOffset input="SourceAlpha"/><feGaussianBlur stdDeviation="6" result="k"/><feFlood flood-opacity="0.161" result="l"/><feComposite operator="out" in="SourceGraphic" in2="k"/><feComposite operator="in" in="l"/><feComposite operator="in" in2="SourceGraphic"/></filter><filter id="m"><feOffset dy="3" input="SourceAlpha"/><feGaussianBlur stdDeviation="10" result="n"/><feFlood flood-opacity="0.161" result="o"/><feComposite operator="out" in="SourceGraphic" in2="n"/><feComposite operator="in" in="o"/><feComposite operator="in" in2="SourceGraphic"/></filter></defs><g transform="translate(10 -570.642)"><g data-type="innerShadowGroup"><g class="s" transform="matrix(1, 0, 0, 1, -10, 570.64)"><path class="a" d="M209.029,136.909H0V1.179C.2,1.14.391,1.1.582,1.065a59.381,59.381,0,0,1,26.362.9A63.074,63.074,0,0,1,41.1,7.609a67.274,67.274,0,0,1,12.6,8.906A70.943,70.943,0,0,1,64.215,28.283a31.709,31.709,0,0,1,23.527-2.675A33.916,33.916,0,0,1,95.6,28.877a36.194,36.194,0,0,1,6.922,5.151,38.092,38.092,0,0,1,5.666,6.789,30.688,30.688,0,0,1,5.108-3.626,36.358,36.358,0,0,1,6.069-2.736,41.662,41.662,0,0,1,6.858-1.728,46.139,46.139,0,0,1,7.473-.6c1.158,0,2.337.043,3.5.127a48.3,48.3,0,0,1,10.024,1.792,44.238,44.238,0,0,1,8.851,3.641,33.773,33.773,0,0,1,12.628,11.5,21.354,21.354,0,0,1,10.046-2.5A22.77,22.77,0,0,1,191.2,50.494a25.5,25.5,0,0,1,2.964-3.769,24.1,24.1,0,0,1,3.605-3.106,22.96,22.96,0,0,1,13.184-4.166,23.214,23.214,0,0,1,7.666,1.311,25.01,25.01,0,0,1,6.859,3.7,26.964,26.964,0,0,1,5.579,5.724,28.386,28.386,0,0,1,3.825,7.4A23.154,23.154,0,0,1,241,47.762a20.883,20.883,0,0,1,4.674-3.328,20.367,20.367,0,0,1,9.381-2.29,20.676,20.676,0,0,1,7.57,1.445,22.506,22.506,0,0,1,6.614,4.043,24.243,24.243,0,0,1,5.065,6.2,25.53,25.53,0,0,1,2.923,7.92c.012.064.021.131.028.188l0,.01c.008.067.018.137.031.207,5.1-.688,10.124-1.213,14.943-1.561,4.727-.341,9.293-.514,13.57-.514a124.288,124.288,0,0,1,13.326.657,62.6,62.6,0,0,1,10.485,1.943,22.942,22.942,0,0,1,7.084,3.188,7.242,7.242,0,0,1,3.122,4.393c.424,2.216-.516,4.652-2.8,7.239a40.98,40.98,0,0,1-10.134,7.716A117.338,117.338,0,0,1,310.7,92.788a210.265,210.265,0,0,1-20.95,6.8,22.637,22.637,0,0,1-2.458,4.741,21.294,21.294,0,0,1-3.46,3.945,20.006,20.006,0,0,1-4.33,2.936,19.6,19.6,0,0,1-8.745,2.065,19.8,19.8,0,0,1-6.324-1.045,21.34,21.34,0,0,1-5.7-2.948A30.938,30.938,0,0,1,255.473,116a28.975,28.975,0,0,1-4.716,5.6,27.1,27.1,0,0,1-5.98,4.171,26.449,26.449,0,0,1-12.01,2.894,26.747,26.747,0,0,1-8.318-1.337,28.953,28.953,0,0,1-7.538-3.773,25.777,25.777,0,0,1-2.928,7.4,23.8,23.8,0,0,1-4.953,5.955Z" transform="translate(9.5 21.06)"/></g><path class="b" d="M209.029,136.909H0V1.179C.2,1.14.391,1.1.582,1.065a59.381,59.381,0,0,1,26.362.9A63.074,63.074,0,0,1,41.1,7.609a67.274,67.274,0,0,1,12.6,8.906A70.943,70.943,0,0,1,64.215,28.283a31.709,31.709,0,0,1,23.527-2.675A33.916,33.916,0,0,1,95.6,28.877a36.194,36.194,0,0,1,6.922,5.151,38.092,38.092,0,0,1,5.666,6.789,30.688,30.688,0,0,1,5.108-3.626,36.358,36.358,0,0,1,6.069-2.736,41.662,41.662,0,0,1,6.858-1.728,46.139,46.139,0,0,1,7.473-.6c1.158,0,2.337.043,3.5.127a48.3,48.3,0,0,1,10.024,1.792,44.238,44.238,0,0,1,8.851,3.641,33.773,33.773,0,0,1,12.628,11.5,21.354,21.354,0,0,1,10.046-2.5A22.77,22.77,0,0,1,191.2,50.494a25.5,25.5,0,0,1,2.964-3.769,24.1,24.1,0,0,1,3.605-3.106,22.96,22.96,0,0,1,13.184-4.166,23.214,23.214,0,0,1,7.666,1.311,25.01,25.01,0,0,1,6.859,3.7,26.964,26.964,0,0,1,5.579,5.724,28.386,28.386,0,0,1,3.825,7.4A23.154,23.154,0,0,1,241,47.762a20.883,20.883,0,0,1,4.674-3.328,20.367,20.367,0,0,1,9.381-2.29,20.676,20.676,0,0,1,7.57,1.445,22.506,22.506,0,0,1,6.614,4.043,24.243,24.243,0,0,1,5.065,6.2,25.53,25.53,0,0,1,2.923,7.92c.012.064.021.131.028.188l0,.01c.008.067.018.137.031.207,5.1-.688,10.124-1.213,14.943-1.561,4.727-.341,9.293-.514,13.57-.514a124.288,124.288,0,0,1,13.326.657,62.6,62.6,0,0,1,10.485,1.943,22.942,22.942,0,0,1,7.084,3.188,7.242,7.242,0,0,1,3.122,4.393c.424,2.216-.516,4.652-2.8,7.239a40.98,40.98,0,0,1-10.134,7.716A117.338,117.338,0,0,1,310.7,92.788a210.265,210.265,0,0,1-20.95,6.8,22.637,22.637,0,0,1-2.458,4.741,21.294,21.294,0,0,1-3.46,3.945,20.006,20.006,0,0,1-4.33,2.936,19.6,19.6,0,0,1-8.745,2.065,19.8,19.8,0,0,1-6.324-1.045,21.34,21.34,0,0,1-5.7-2.948A30.938,30.938,0,0,1,255.473,116a28.975,28.975,0,0,1-4.716,5.6,27.1,27.1,0,0,1-5.98,4.171,26.449,26.449,0,0,1-12.01,2.894,26.747,26.747,0,0,1-8.318-1.337,28.953,28.953,0,0,1-7.538-3.773,25.777,25.777,0,0,1-2.928,7.4,23.8,23.8,0,0,1-4.953,5.955Z" transform="translate(-0.5 591.703)"/><g class="r" transform="matrix(1, 0, 0, 1, -10, 570.64)"><path class="c" d="M209.029,136.909H0V1.179C.2,1.14.391,1.1.582,1.065a59.381,59.381,0,0,1,26.362.9A63.074,63.074,0,0,1,41.1,7.609a67.274,67.274,0,0,1,12.6,8.906A70.943,70.943,0,0,1,64.215,28.283a31.709,31.709,0,0,1,23.527-2.675A33.916,33.916,0,0,1,95.6,28.877a36.194,36.194,0,0,1,6.922,5.151,38.092,38.092,0,0,1,5.666,6.789,30.688,30.688,0,0,1,5.108-3.626,36.358,36.358,0,0,1,6.069-2.736,41.662,41.662,0,0,1,6.858-1.728,46.139,46.139,0,0,1,7.473-.6c1.158,0,2.337.043,3.5.127a48.3,48.3,0,0,1,10.024,1.792,44.238,44.238,0,0,1,8.851,3.641,33.773,33.773,0,0,1,12.628,11.5,21.354,21.354,0,0,1,10.046-2.5A22.77,22.77,0,0,1,191.2,50.494a25.5,25.5,0,0,1,2.964-3.769,24.1,24.1,0,0,1,3.605-3.106,22.96,22.96,0,0,1,13.184-4.166,23.214,23.214,0,0,1,7.666,1.311,25.01,25.01,0,0,1,6.859,3.7,26.964,26.964,0,0,1,5.579,5.724,28.386,28.386,0,0,1,3.825,7.4A23.154,23.154,0,0,1,241,47.762a20.883,20.883,0,0,1,4.674-3.328,20.367,20.367,0,0,1,9.381-2.29,20.676,20.676,0,0,1,7.57,1.445,22.506,22.506,0,0,1,6.614,4.043,24.243,24.243,0,0,1,5.065,6.2,25.53,25.53,0,0,1,2.923,7.92c.012.064.021.131.028.188l0,.01c.008.067.018.137.031.207,5.1-.688,10.124-1.213,14.943-1.561,4.727-.341,9.293-.514,13.57-.514a124.288,124.288,0,0,1,13.326.657,62.6,62.6,0,0,1,10.485,1.943,22.942,22.942,0,0,1,7.084,3.188,7.242,7.242,0,0,1,3.122,4.393c.424,2.216-.516,4.652-2.8,7.239a40.98,40.98,0,0,1-10.134,7.716A117.338,117.338,0,0,1,310.7,92.788a210.265,210.265,0,0,1-20.95,6.8,22.637,22.637,0,0,1-2.458,4.741,21.294,21.294,0,0,1-3.46,3.945,20.006,20.006,0,0,1-4.33,2.936,19.6,19.6,0,0,1-8.745,2.065,19.8,19.8,0,0,1-6.324-1.045,21.34,21.34,0,0,1-5.7-2.948A30.938,30.938,0,0,1,255.473,116a28.975,28.975,0,0,1-4.716,5.6,27.1,27.1,0,0,1-5.98,4.171,26.449,26.449,0,0,1-12.01,2.894,26.747,26.747,0,0,1-8.318-1.337,28.953,28.953,0,0,1-7.538-3.773,25.777,25.777,0,0,1-2.928,7.4,23.8,23.8,0,0,1-4.953,5.955Z" transform="translate(9.5 21.06)"/></g><path class="d" d="M209.029,136.909H0V1.179C.2,1.14.391,1.1.582,1.065a59.381,59.381,0,0,1,26.362.9A63.074,63.074,0,0,1,41.1,7.609a67.274,67.274,0,0,1,12.6,8.906A70.943,70.943,0,0,1,64.215,28.283a31.709,31.709,0,0,1,23.527-2.675A33.916,33.916,0,0,1,95.6,28.877a36.194,36.194,0,0,1,6.922,5.151,38.092,38.092,0,0,1,5.666,6.789,30.688,30.688,0,0,1,5.108-3.626,36.358,36.358,0,0,1,6.069-2.736,41.662,41.662,0,0,1,6.858-1.728,46.139,46.139,0,0,1,7.473-.6c1.158,0,2.337.043,3.5.127a48.3,48.3,0,0,1,10.024,1.792,44.238,44.238,0,0,1,8.851,3.641,33.773,33.773,0,0,1,12.628,11.5,21.354,21.354,0,0,1,10.046-2.5A22.77,22.77,0,0,1,191.2,50.494a25.5,25.5,0,0,1,2.964-3.769,24.1,24.1,0,0,1,3.605-3.106,22.96,22.96,0,0,1,13.184-4.166,23.214,23.214,0,0,1,7.666,1.311,25.01,25.01,0,0,1,6.859,3.7,26.964,26.964,0,0,1,5.579,5.724,28.386,28.386,0,0,1,3.825,7.4A23.154,23.154,0,0,1,241,47.762a20.883,20.883,0,0,1,4.674-3.328,20.367,20.367,0,0,1,9.381-2.29,20.676,20.676,0,0,1,7.57,1.445,22.506,22.506,0,0,1,6.614,4.043,24.243,24.243,0,0,1,5.065,6.2,25.53,25.53,0,0,1,2.923,7.92c.012.064.021.131.028.188l0,.01c.008.067.018.137.031.207,5.1-.688,10.124-1.213,14.943-1.561,4.727-.341,9.293-.514,13.57-.514a124.288,124.288,0,0,1,13.326.657,62.6,62.6,0,0,1,10.485,1.943,22.942,22.942,0,0,1,7.084,3.188,7.242,7.242,0,0,1,3.122,4.393c.424,2.216-.516,4.652-2.8,7.239a40.98,40.98,0,0,1-10.134,7.716A117.338,117.338,0,0,1,310.7,92.788a210.265,210.265,0,0,1-20.95,6.8,22.637,22.637,0,0,1-2.458,4.741,21.294,21.294,0,0,1-3.46,3.945,20.006,20.006,0,0,1-4.33,2.936,19.6,19.6,0,0,1-8.745,2.065,19.8,19.8,0,0,1-6.324-1.045,21.34,21.34,0,0,1-5.7-2.948A30.938,30.938,0,0,1,255.473,116a28.975,28.975,0,0,1-4.716,5.6,27.1,27.1,0,0,1-5.98,4.171,26.449,26.449,0,0,1-12.01,2.894,26.747,26.747,0,0,1-8.318-1.337,28.953,28.953,0,0,1-7.538-3.773,25.777,25.777,0,0,1-2.928,7.4,23.8,23.8,0,0,1-4.953,5.955Z" transform="translate(-0.5 591.703)"/></g><path class="e" d="M338.325,157.47H103.038a26.925,26.925,0,0,1-2.018-4.4,24.008,24.008,0,0,1-4.506,4.4H75.276l-.226-.169a24.044,24.044,0,0,1-4.394-4.387,29.775,29.775,0,0,1-3.453-5.686,18.5,18.5,0,0,1-2.4,2.588,15.527,15.527,0,0,1-2.737,1.955,12.723,12.723,0,0,1-6.252,1.667,12.5,12.5,0,0,1-4.1-.695,14.133,14.133,0,0,1-3.713-1.968,17.466,17.466,0,0,1-3.2-3.065,21.487,21.487,0,0,1-2.555-3.986,133.7,133.7,0,0,1-16.887-2.6,77.253,77.253,0,0,1-13.383-4.173,29.909,29.909,0,0,1-8.812-5.392C1.068,129.55,0,127.444,0,125.3c0-2.262,1.183-4.475,3.517-6.58a32.766,32.766,0,0,1,9.717-5.594,84.8,84.8,0,0,1,14.67-4.2,142.908,142.908,0,0,1,18.373-2.385c0-.053,0-.107-.006-.155v-.023c0-.068-.007-.139-.007-.211a29.134,29.134,0,0,1,1.331-8.806,25.815,25.815,0,0,1,1.562-3.843,22.668,22.668,0,0,1,2.068-3.348A19.317,19.317,0,0,1,53.731,87.4a16.237,16.237,0,0,1,2.877-2.086A13.278,13.278,0,0,1,63.2,83.533a12.981,12.981,0,0,1,4.487.805,14.914,14.914,0,0,1,4.031,2.272,20.942,20.942,0,0,1,6.067,8.076,31.432,31.432,0,0,1,2.2-8.533A25.53,25.53,0,0,1,84.168,79.3a18.879,18.879,0,0,1,5.7-4.558,14.717,14.717,0,0,1,14.05.266,18.136,18.136,0,0,1,3.188,2.255,21.6,21.6,0,0,1,2.8,2.989,18.258,18.258,0,0,1,5.489-4.5,13.7,13.7,0,0,1,11.4-.742,32.456,32.456,0,0,1,7.91-13,34.423,34.423,0,0,1,6.188-4.982,33.38,33.38,0,0,1,7.347-3.466,29.675,29.675,0,0,1,9.279-1.535,25.217,25.217,0,0,1,7.535,1.123,22.193,22.193,0,0,1,6.448,3.218,38.739,38.739,0,0,1,4.006-8.491,31.093,31.093,0,0,1,5.593-6.633,21.919,21.919,0,0,1,14.592-5.857,20.421,20.421,0,0,1,7.355,1.412,70.893,70.893,0,0,1,7.609-14.94,56.929,56.929,0,0,1,10.3-11.628,44.512,44.512,0,0,1,12.429-7.544,37.793,37.793,0,0,1,26.323-.619A42.848,42.848,0,0,1,270.9,7.927a52.717,52.717,0,0,1,9.669,9.136,64.808,64.808,0,0,1,7.763,11.9,23.087,23.087,0,0,1,6.122-3.389,19.866,19.866,0,0,1,6.792-1.207,21.65,21.65,0,0,1,14.634,6.008,31.02,31.02,0,0,1,5.547,6.787,38.545,38.545,0,0,1,3.889,8.668,19.89,19.89,0,0,1,4.712-2.14,17.672,17.672,0,0,1,8.3-.467V157.47Z" transform="translate(51.175 571.142)"/><g data-type="innerShadowGroup"><path class="f" d="M206.953,96.712H0V0A43.344,43.344,0,0,1,5.276,2.585a45.372,45.372,0,0,1,8.719,6.569,48.268,48.268,0,0,1,7.06,8.568,41.7,41.7,0,0,1,6.037-5.967A39.251,39.251,0,0,1,34.16,7.223a37.269,37.269,0,0,1,7.909-2.878,36.8,36.8,0,0,1,8.56-1.008,37.3,37.3,0,0,1,21.763,7.052,41.154,41.154,0,0,1,8.368,7.994,43.954,43.954,0,0,1,6.03,10.242,63.814,63.814,0,0,1,7.594-1.548,57.231,57.231,0,0,1,7.877-.554A59.942,59.942,0,0,1,124.539,30.8a62.3,62.3,0,0,1,9.97,5.061,65.163,65.163,0,0,1,8.957,6.755,68.15,68.15,0,0,1,7.768,8.26,70.724,70.724,0,0,1,6.4,9.573,72.755,72.755,0,0,1,4.866,10.7,74.493,74.493,0,0,1,3.151,11.631c.035.066.074.133.115.2l0,.005c.026.044.061.1.094.162a26.09,26.09,0,0,1,7.378-4.214,24.745,24.745,0,0,1,16.851-.09,25.865,25.865,0,0,1,7.25,4,27.969,27.969,0,0,1,5.759,6.109,29.735,29.735,0,0,1,3.847,7.764Z" transform="translate(-0.5 631.9)"/><g class="q" transform="matrix(1, 0, 0, 1, -10, 570.64)"><path class="g" d="M206.953,96.712H0V0A43.344,43.344,0,0,1,5.276,2.585a45.372,45.372,0,0,1,8.719,6.569,48.268,48.268,0,0,1,7.06,8.568,41.7,41.7,0,0,1,6.037-5.967A39.251,39.251,0,0,1,34.16,7.223a37.269,37.269,0,0,1,7.909-2.878,36.8,36.8,0,0,1,8.56-1.008,37.3,37.3,0,0,1,21.763,7.052,41.154,41.154,0,0,1,8.368,7.994,43.954,43.954,0,0,1,6.03,10.242,63.814,63.814,0,0,1,7.594-1.548,57.231,57.231,0,0,1,7.877-.554A59.942,59.942,0,0,1,124.539,30.8a62.3,62.3,0,0,1,9.97,5.061,65.163,65.163,0,0,1,8.957,6.755,68.15,68.15,0,0,1,7.768,8.26,70.724,70.724,0,0,1,6.4,9.573,72.755,72.755,0,0,1,4.866,10.7,74.493,74.493,0,0,1,3.151,11.631c.035.066.074.133.115.2l0,.005c.026.044.061.1.094.162a26.09,26.09,0,0,1,7.378-4.214,24.745,24.745,0,0,1,16.851-.09,25.865,25.865,0,0,1,7.25,4,27.969,27.969,0,0,1,5.759,6.109,29.735,29.735,0,0,1,3.847,7.764Z" transform="translate(9.5 61.26)"/></g><path class="h" d="M206.953,96.712H0V0A43.344,43.344,0,0,1,5.276,2.585a45.372,45.372,0,0,1,8.719,6.569,48.268,48.268,0,0,1,7.06,8.568,41.7,41.7,0,0,1,6.037-5.967A39.251,39.251,0,0,1,34.16,7.223a37.269,37.269,0,0,1,7.909-2.878,36.8,36.8,0,0,1,8.56-1.008,37.3,37.3,0,0,1,21.763,7.052,41.154,41.154,0,0,1,8.368,7.994,43.954,43.954,0,0,1,6.03,10.242,63.814,63.814,0,0,1,7.594-1.548,57.231,57.231,0,0,1,7.877-.554A59.942,59.942,0,0,1,124.539,30.8a62.3,62.3,0,0,1,9.97,5.061,65.163,65.163,0,0,1,8.957,6.755,68.15,68.15,0,0,1,7.768,8.26,70.724,70.724,0,0,1,6.4,9.573,72.755,72.755,0,0,1,4.866,10.7,74.493,74.493,0,0,1,3.151,11.631c.035.066.074.133.115.2l0,.005c.026.044.061.1.094.162a26.09,26.09,0,0,1,7.378-4.214,24.745,24.745,0,0,1,16.851-.09,25.865,25.865,0,0,1,7.25,4,27.969,27.969,0,0,1,5.759,6.109,29.735,29.735,0,0,1,3.847,7.764Z" transform="translate(-0.5 631.9)"/></g><g data-type="innerShadowGroup"><path class="i" d="M284.535,143.729H0a18.272,18.272,0,0,1,12.4-4.846c.234,0,.462,0,.68.012a18.272,18.272,0,0,1,10.121,3.49A43.262,43.262,0,0,1,38.25,129.221a42.7,42.7,0,0,1,19.959-4.929c.528,0,1.062.01,1.586.029a43.012,43.012,0,0,1,12.1,2.221,37,37,0,0,1,13.114-12.637,36.414,36.414,0,0,1,18.065-4.778c.452,0,.907.008,1.353.024a36.656,36.656,0,0,1,11.933,2.483A62.8,62.8,0,0,1,178.47,58.356c.771,0,1.554.014,2.328.042a61.555,61.555,0,0,1,8.863.97,64.585,64.585,0,0,1,8.437,2.152,80.543,80.543,0,0,1,18.679-35.075,80.85,80.85,0,0,1,32.79-21.828A80.351,80.351,0,0,1,276.5,0c.995,0,2,.018,2.986.054,1.68.061,3.38.176,5.053.341V143.729Z" transform="translate(104.964 584.883)"/><g class="p" transform="matrix(1, 0, 0, 1, -10, 570.64)"><path class="j" d="M284.535,143.729H0a18.272,18.272,0,0,1,12.4-4.846c.234,0,.462,0,.68.012a18.272,18.272,0,0,1,10.121,3.49A43.262,43.262,0,0,1,38.25,129.221a42.7,42.7,0,0,1,19.959-4.929c.528,0,1.062.01,1.586.029a43.012,43.012,0,0,1,12.1,2.221,37,37,0,0,1,13.114-12.637,36.414,36.414,0,0,1,18.065-4.778c.452,0,.907.008,1.353.024a36.656,36.656,0,0,1,11.933,2.483A62.8,62.8,0,0,1,178.47,58.356c.771,0,1.554.014,2.328.042a61.555,61.555,0,0,1,8.863.97,64.585,64.585,0,0,1,8.437,2.152,80.543,80.543,0,0,1,18.679-35.075,80.85,80.85,0,0,1,32.79-21.828A80.351,80.351,0,0,1,276.5,0c.995,0,2,.018,2.986.054,1.68.061,3.38.176,5.053.341V143.729Z" transform="translate(114.96 14.24)"/></g><path class="k" d="M284.535,143.729H0a18.272,18.272,0,0,1,12.4-4.846c.234,0,.462,0,.68.012a18.272,18.272,0,0,1,10.121,3.49A43.262,43.262,0,0,1,38.25,129.221a42.7,42.7,0,0,1,19.959-4.929c.528,0,1.062.01,1.586.029a43.012,43.012,0,0,1,12.1,2.221,37,37,0,0,1,13.114-12.637,36.414,36.414,0,0,1,18.065-4.778c.452,0,.907.008,1.353.024a36.656,36.656,0,0,1,11.933,2.483A62.8,62.8,0,0,1,178.47,58.356c.771,0,1.554.014,2.328.042a61.555,61.555,0,0,1,8.863.97,64.585,64.585,0,0,1,8.437,2.152,80.543,80.543,0,0,1,18.679-35.075,80.85,80.85,0,0,1,32.79-21.828A80.351,80.351,0,0,1,276.5,0c.995,0,2,.018,2.986.054,1.68.061,3.38.176,5.053.341V143.729Z" transform="translate(104.964 584.883)"/></g><g data-type="innerShadowGroup"><path class="l" d="M292.659,71.706H0a21.981,21.981,0,0,1,4.471-1.522,22.034,22.034,0,0,1,12.1.7A37.895,37.895,0,0,1,64.779,38.864a48.352,48.352,0,0,1,6.079-15.432A48.756,48.756,0,0,1,152.22,20.46a37.337,37.337,0,0,1,60.816,25.562,21.233,21.233,0,0,1,3.157-2.809,20.952,20.952,0,0,1,3.677-2.132,20.889,20.889,0,0,1,29.307,16.825A28.552,28.552,0,0,1,256.9,53.97a28.367,28.367,0,0,1,25.536,3.979,28.593,28.593,0,0,1,10.223,13.757Z" transform="translate(46.202 656.906)"/><g class="o" transform="matrix(1, 0, 0, 1, -10, 570.64)"><path class="m" d="M292.659,71.706H0a21.981,21.981,0,0,1,4.471-1.522,22.034,22.034,0,0,1,12.1.7A37.895,37.895,0,0,1,64.779,38.864a48.352,48.352,0,0,1,6.079-15.432A48.756,48.756,0,0,1,152.22,20.46a37.337,37.337,0,0,1,60.816,25.562,21.233,21.233,0,0,1,3.157-2.809,20.952,20.952,0,0,1,3.677-2.132,20.889,20.889,0,0,1,29.307,16.825A28.552,28.552,0,0,1,256.9,53.97a28.367,28.367,0,0,1,25.536,3.979,28.593,28.593,0,0,1,10.223,13.757Z" transform="translate(56.2 86.26)"/></g><path class="n" d="M292.659,71.706H0a21.981,21.981,0,0,1,4.471-1.522,22.034,22.034,0,0,1,12.1.7A37.895,37.895,0,0,1,64.779,38.864a48.352,48.352,0,0,1,6.079-15.432A48.756,48.756,0,0,1,152.22,20.46a37.337,37.337,0,0,1,60.816,25.562,21.233,21.233,0,0,1,3.157-2.809,20.952,20.952,0,0,1,3.677-2.132,20.889,20.889,0,0,1,29.307,16.825A28.552,28.552,0,0,1,256.9,53.97a28.367,28.367,0,0,1,25.536,3.979,28.593,28.593,0,0,1,10.223,13.757Z" transform="translate(46.202 656.906)"/></g></g></svg>